<svg id="svg" version="1.1" width="400" height="470.32967032967036" viewBox="0 0 400 470.32967032967036" xmlns="http://www.w3.org/2000/svg" xmlns:xlink="http://www.w3.org/1999/xlink" ><g id="svgg"><path id="path0" d="M59.625 22.560 C 59.611 22.978,59.168 24.238,58.640 25.360 C 54.382 34.409,53.430 64.301,56.854 81.400 C 58.734 90.786,60.285 96.656,62.402 102.400 C 63.091 104.270,63.840 106.430,64.065 107.200 C 64.290 107.970,64.638 108.771,64.837 108.980 C 65.222 109.383,65.346 111.200,64.989 111.200 C 64.359 111.200,60.971 107.043,59.772 104.800 C 59.008 103.370,57.584 100.940,56.608 99.400 C 53.395 94.328,48.739 84.470,46.692 78.400 C 45.912 76.090,45.097 73.750,44.880 73.200 C 44.662 72.650,43.986 70.310,43.376 68.000 C 42.638 65.204,41.949 63.466,41.313 62.800 L 40.358 61.800 40.566 63.800 C 40.681 64.900,40.877 67.420,41.002 69.400 C 41.433 76.215,46.274 94.603,49.136 100.297 C 49.552 101.124,50.119 102.520,50.396 103.400 C 50.934 105.103,52.602 109.002,53.221 110.000 C 53.425 110.330,54.067 111.500,54.647 112.600 C 56.234 115.609,59.074 120.244,61.360 123.553 C 63.542 126.711,63.520 126.679,66.700 131.139 C 72.220 138.880,65.407 133.303,57.874 123.915 C 53.459 118.411,46.821 108.308,44.174 103.063 C 40.002 94.794,38.999 93.227,37.865 93.206 C 37.246 93.195,38.082 96.569,39.647 100.400 C 40.501 102.490,41.200 104.493,41.200 104.850 C 41.200 106.134,47.505 119.099,50.513 124.000 C 51.391 125.430,52.482 127.230,52.938 128.000 C 54.347 130.379,58.830 136.876,60.804 139.400 C 63.915 143.378,65.641 146.010,65.398 146.403 C 64.832 147.318,54.396 137.768,49.221 131.600 C 44.360 125.806,43.096 124.400,42.749 124.400 C 42.208 124.400,42.355 125.252,43.200 127.000 C 43.625 127.880,43.979 128.732,43.986 128.893 C 44.179 133.047,63.889 155.496,75.000 164.216 C 78.076 166.630,80.516 169.055,80.350 169.532 C 79.919 170.771,66.985 163.436,59.000 157.423 C 47.438 148.718,53.968 157.286,66.194 166.862 C 71.815 171.266,78.149 175.583,83.999 179.000 C 90.203 182.624,90.816 183.486,86.852 183.010 C 84.684 182.750,78.871 181.189,76.800 180.312 C 76.250 180.079,75.170 179.745,74.400 179.571 C 72.661 179.177,69.563 178.154,67.227 177.203 C 65.424 176.468,64.394 176.519,64.407 177.343 C 64.416 177.892,70.840 181.415,74.199 182.712 C 75.518 183.221,76.769 183.809,76.979 184.019 C 77.188 184.228,77.642 184.400,77.986 184.400 C 78.330 184.400,79.239 184.736,80.006 185.147 C 80.773 185.557,82.030 186.028,82.800 186.193 C 83.570 186.358,84.381 186.637,84.602 186.814 C 84.823 186.990,86.803 187.695,89.002 188.380 C 91.201 189.065,93.540 189.815,94.200 190.045 C 94.860 190.276,96.364 190.701,97.543 190.990 C 99.723 191.524,101.206 192.530,100.640 193.090 C 99.697 194.025,81.784 192.934,76.200 191.601 C 74.183 191.120,69.718 191.086,69.431 191.549 C 69.080 192.118,76.687 194.761,81.200 195.638 C 82.410 195.873,83.993 196.245,84.717 196.465 C 87.133 197.197,99.336 198.960,106.715 199.642 C 114.802 200.389,115.475 201.537,108.443 202.593 C 106.163 202.936,104.161 203.300,103.995 203.403 C 103.585 203.657,92.196 204.317,83.400 204.597 C 74.278 204.887,73.134 205.193,76.300 206.496 C 77.663 207.056,79.123 207.326,86.600 208.395 C 94.580 209.536,106.058 210.342,114.900 210.381 C 119.133 210.400,119.503 210.504,118.869 211.502 C 118.539 212.022,113.293 214.052,109.800 215.011 C 108.700 215.313,106.270 216.020,104.400 216.582 C 99.318 218.111,89.989 220.000,87.524 220.000 C 83.768 220.000,82.873 221.551,86.117 222.439 C 88.884 223.196,107.139 223.095,113.871 222.285 C 119.730 221.580,120.925 221.657,120.719 222.726 C 120.538 223.664,112.301 229.200,111.086 229.200 C 110.943 229.200,109.335 229.933,107.513 230.828 C 104.049 232.530,102.206 233.280,99.200 234.208 C 88.340 237.560,90.645 238.733,104.400 236.854 C 110.590 236.008,113.715 235.434,119.000 234.171 C 122.204 233.405,126.092 232.499,127.700 232.143 C 128.413 231.986,128.800 232.065,128.800 232.369 C 128.800 234.167,118.515 240.403,106.302 246.010 C 100.321 248.756,102.443 250.594,109.227 248.543 C 110.422 248.182,112.480 247.665,113.800 247.393 C 117.750 246.581,121.094 245.670,127.035 243.786 C 135.194 241.200,135.803 241.406,131.927 245.448 C 128.842 248.667,125.933 251.000,120.281 254.790 C 110.086 261.627,122.997 259.293,134.852 252.156 C 137.364 250.644,138.400 250.454,138.400 251.505 C 138.400 252.651,133.017 260.220,129.944 263.396 C 127.387 266.039,128.134 267.183,131.486 265.755 C 135.903 263.875,142.400 259.737,142.400 258.805 C 142.400 258.124,144.338 257.643,144.807 258.209 C 145.645 259.218,144.889 262.040,142.306 267.542 C 141.527 269.200,141.680 269.960,142.800 269.994 C 143.163 270.005,149.779 265.574,150.800 264.636 C 153.698 261.974,155.062 263.673,153.833 268.412 C 152.842 272.231,154.653 272.778,157.667 269.568 C 159.818 267.276,160.130 267.309,161.266 269.944 C 166.245 281.492,171.332 304.042,172.422 319.400 C 172.625 322.260,172.981 326.400,173.215 328.600 C 173.448 330.800,173.810 337.370,174.018 343.200 C 174.226 349.030,174.580 357.130,174.805 361.200 C 175.029 365.270,175.388 373.910,175.602 380.400 C 175.817 386.890,176.166 395.530,176.378 399.600 C 176.590 403.670,176.869 410.600,176.998 415.000 C 177.248 423.504,177.915 429.934,178.406 428.580 C 179.147 426.539,179.309 412.988,179.247 358.000 C 179.206 322.191,179.327 298.378,179.550 298.042 C 180.062 297.267,181.134 297.774,181.605 299.013 C 182.280 300.789,191.059 318.192,192.157 319.931 C 192.730 320.840,193.200 321.708,193.200 321.858 C 193.200 323.399,198.260 330.000,199.441 330.000 C 201.192 330.000,207.953 318.207,211.596 308.800 C 213.534 303.795,216.540 297.580,216.955 297.718 C 217.278 297.826,217.455 316.412,217.600 365.700 C 217.710 403.008,217.908 433.642,218.041 433.774 C 218.659 434.392,220.254 413.511,220.788 397.800 C 221.020 390.980,221.392 382.784,221.614 379.586 C 221.835 376.388,222.184 367.928,222.389 360.786 C 223.022 338.676,224.858 314.717,226.632 305.400 C 228.832 293.849,229.630 290.586,232.447 281.600 C 236.630 268.263,236.416 268.580,239.245 271.530 C 241.972 274.374,243.496 274.401,243.227 271.600 C 242.587 264.967,243.217 264.319,247.327 267.380 C 253.948 272.312,256.937 272.990,254.614 269.033 C 252.634 265.660,251.318 260.449,252.300 259.871 C 252.870 259.535,254.209 260.346,256.655 262.507 C 259.138 264.702,265.995 268.400,267.582 268.400 C 269.129 268.400,268.443 266.817,265.322 263.185 C 258.003 254.670,256.527 250.690,261.916 253.999 C 264.738 255.732,269.123 257.880,271.600 258.743 C 272.810 259.164,274.340 259.703,275.000 259.939 C 282.408 262.594,284.233 261.602,278.595 257.985 C 266.426 250.178,258.010 240.597,266.974 244.754 C 267.868 245.169,269.320 245.700,270.200 245.933 C 274.999 247.205,276.716 247.689,277.800 248.074 C 279.204 248.573,284.845 249.885,288.000 250.446 C 289.210 250.661,291.048 251.024,292.085 251.252 C 294.284 251.735,294.981 251.486,294.410 250.419 C 294.101 249.841,286.189 245.600,285.419 245.600 C 285.315 245.600,283.237 244.512,280.801 243.183 C 268.492 236.465,264.964 232.512,273.658 235.180 C 275.056 235.609,277.326 236.139,278.703 236.358 C 280.080 236.577,281.374 236.860,281.579 236.987 C 281.951 237.217,285.719 237.817,294.279 239.011 C 302.062 240.097,307.960 239.243,302.800 237.777 C 301.810 237.496,299.470 236.703,297.600 236.014 C 295.730 235.326,293.570 234.572,292.800 234.340 C 288.983 233.189,277.639 226.685,276.633 225.072 C 276.031 224.106,277.015 223.516,278.729 223.815 C 284.285 224.785,310.045 225.232,311.626 224.386 C 313.421 223.425,311.350 222.108,307.510 221.767 C 305.077 221.551,300.111 220.551,295.600 219.369 C 294.390 219.052,292.507 218.605,291.416 218.376 C 290.325 218.147,289.245 217.816,289.016 217.641 C 288.787 217.467,286.530 216.658,284.000 215.844 C 275.039 212.962,275.696 212.517,289.611 212.041 C 302.324 211.607,320.840 209.320,322.135 208.025 C 322.897 207.263,319.262 206.722,312.682 206.619 C 303.307 206.472,294.745 205.726,289.010 204.557 C 282.093 203.147,281.768 202.527,287.668 201.993 C 293.722 201.446,301.977 200.413,305.200 199.801 C 306.850 199.487,309.100 199.063,310.200 198.859 C 313.602 198.226,317.738 197.163,319.114 196.568 C 319.836 196.256,320.970 196.000,321.634 196.000 C 322.298 196.000,323.507 195.655,324.321 195.233 C 325.134 194.811,326.305 194.271,326.923 194.031 C 329.807 192.914,326.858 192.467,322.526 193.365 C 321.027 193.676,318.540 194.050,317.000 194.196 C 315.460 194.342,312.785 194.718,311.056 195.031 C 307.122 195.743,297.164 195.804,296.480 195.120 C 295.667 194.307,295.920 194.064,298.300 193.376 C 304.228 191.662,308.636 190.274,309.000 190.005 C 309.220 189.843,309.940 189.581,310.600 189.424 C 313.836 188.651,328.263 182.475,329.786 181.212 C 330.129 180.927,330.982 180.403,331.681 180.047 C 332.380 179.691,333.023 179.175,333.110 178.900 C 333.330 178.199,331.536 178.261,330.576 178.987 C 330.149 179.310,329.296 179.580,328.680 179.587 C 328.064 179.594,326.984 179.899,326.280 180.263 C 325.576 180.628,324.460 181.059,323.800 181.221 C 323.140 181.383,321.790 181.790,320.800 182.126 C 315.802 183.820,308.555 185.489,308.114 185.047 C 307.689 184.623,308.711 183.586,310.714 182.410 C 311.971 181.671,313.902 180.467,315.003 179.734 C 316.105 179.000,317.142 178.400,317.307 178.400 C 317.901 178.400,327.628 171.573,330.527 169.121 C 331.367 168.410,333.167 166.980,334.527 165.942 C 337.665 163.547,344.800 156.690,344.800 156.069 C 344.800 154.873,342.879 155.971,333.672 162.427 C 326.992 167.111,318.912 171.600,317.160 171.600 C 315.944 171.600,316.265 170.961,318.300 169.334 C 330.779 159.357,347.944 141.209,349.989 135.829 C 350.188 135.306,350.529 134.768,350.746 134.633 C 351.292 134.296,354.796 127.810,355.208 126.373 C 355.555 125.162,355.095 124.753,354.520 125.761 C 354.344 126.070,353.304 127.285,352.208 128.461 C 351.112 129.638,349.556 131.426,348.749 132.436 C 343.973 138.415,330.997 150.373,330.202 149.528 C 330.136 149.457,331.951 146.970,334.235 144.000 C 336.519 141.030,338.948 137.655,339.632 136.500 C 340.316 135.345,341.036 134.301,341.231 134.181 C 343.355 132.868,355.445 109.738,356.794 104.407 C 356.989 103.633,357.801 101.135,358.597 98.855 C 360.049 94.695,360.112 94.118,359.074 94.516 C 358.453 94.755,353.871 102.423,353.407 104.000 C 353.245 104.550,351.866 107.070,350.343 109.600 C 347.960 113.556,346.357 115.952,341.079 123.448 C 337.243 128.894,328.779 137.508,328.811 135.934 C 328.816 135.640,329.711 134.140,330.799 132.600 C 339.141 120.794,345.132 110.562,346.961 105.000 C 347.322 103.900,347.784 102.640,347.988 102.200 C 350.529 96.696,354.245 83.693,355.188 77.000 C 355.406 75.460,355.767 73.571,355.992 72.803 C 356.492 71.090,356.534 64.530,356.047 64.229 C 355.644 63.980,354.998 65.706,351.728 75.757 C 349.130 83.744,348.510 85.481,347.432 87.800 C 344.582 93.933,343.695 95.719,342.271 98.200 C 341.387 99.740,340.032 102.170,339.260 103.600 C 336.954 107.873,330.612 115.799,331.789 112.936 C 331.956 112.531,332.226 111.660,332.390 111.000 C 332.553 110.340,332.998 109.080,333.379 108.200 C 334.240 106.209,337.030 97.489,337.410 95.600 C 337.565 94.830,337.828 94.020,337.995 93.800 C 338.362 93.315,339.868 85.725,340.813 79.600 C 341.067 77.950,341.468 75.610,341.703 74.400 C 342.446 70.572,342.256 46.053,341.451 41.964 C 341.080 40.073,340.610 37.193,340.407 35.564 C 339.856 31.130,338.311 25.832,337.526 25.681 C 336.932 25.567,336.893 26.548,337.080 36.678 C 337.346 51.062,336.219 62.719,333.570 73.000 C 333.343 73.880,332.906 75.680,332.599 77.000 C 331.905 79.979,329.172 88.317,328.010 91.000 C 327.533 92.100,326.909 93.540,326.623 94.200 C 313.892 123.572,291.186 145.786,261.800 157.618 C 254.435 160.583,252.496 161.302,250.532 161.794 C 249.395 162.079,248.288 162.422,248.071 162.556 C 247.248 163.065,232.173 166.599,229.146 166.994 C 228.126 167.127,227.021 167.542,226.690 167.918 C 225.921 168.790,223.600 173.778,223.600 174.560 C 223.600 174.886,223.438 175.253,223.240 175.375 C 222.338 175.933,221.533 181.548,222.017 183.902 C 222.630 186.884,222.769 187.127,226.359 191.530 C 232.408 198.950,232.384 198.848,229.800 206.000 C 229.522 206.770,228.813 209.200,228.225 211.400 C 227.637 213.600,226.993 215.760,226.794 216.200 C 226.594 216.640,225.789 218.980,225.005 221.400 C 224.221 223.820,223.418 226.160,223.220 226.600 C 223.022 227.040,222.774 227.850,222.669 228.400 C 222.505 229.258,216.160 247.906,215.456 249.600 C 215.319 249.930,214.505 252.270,213.647 254.800 C 212.790 257.330,211.246 261.740,210.217 264.600 C 209.187 267.460,207.824 271.330,207.187 273.200 C 206.549 275.070,205.501 278.040,204.858 279.800 C 204.214 281.560,203.305 284.070,202.838 285.379 C 201.897 288.015,200.981 289.600,200.399 289.600 C 199.992 289.600,198.400 286.730,198.400 285.996 C 198.400 285.756,197.705 283.903,196.856 281.880 C 196.006 279.856,194.091 275.050,192.600 271.200 C 191.109 267.350,189.353 262.940,188.697 261.400 C 188.041 259.860,187.270 257.880,186.985 257.000 C 186.376 255.126,185.123 251.833,182.800 246.000 C 181.880 243.690,180.713 240.720,180.207 239.400 C 179.700 238.080,178.727 235.620,178.043 233.933 C 177.359 232.247,176.800 230.604,176.800 230.282 C 176.800 229.961,176.530 229.474,176.200 229.200 C 175.870 228.926,175.600 228.456,175.600 228.155 C 175.600 227.642,171.840 217.686,169.801 212.800 C 169.296 211.590,168.216 208.710,167.400 206.400 C 166.585 204.090,165.640 201.677,165.300 201.038 C 164.542 199.613,164.553 197.743,165.326 196.860 C 165.644 196.497,166.199 195.617,166.559 194.905 C 166.920 194.193,168.472 192.186,170.007 190.447 C 175.566 184.149,176.455 180.158,173.832 173.285 C 171.768 167.876,170.535 165.642,169.497 165.433 C 169.004 165.334,168.060 165.156,167.400 165.038 C 164.099 164.446,157.974 163.111,156.200 162.597 C 155.100 162.279,152.490 161.547,150.400 160.970 C 144.029 159.214,136.487 156.409,130.493 153.568 C 128.674 152.705,127.099 152.000,126.992 152.000 C 126.652 152.000,118.247 147.125,117.000 146.205 C 116.340 145.717,115.174 144.996,114.410 144.602 C 112.374 143.554,106.226 139.052,104.578 137.404 C 103.795 136.622,102.490 135.547,101.677 135.016 C 97.774 132.463,87.607 121.483,82.591 114.401 C 75.034 103.732,68.410 89.494,64.818 76.200 C 64.342 74.440,63.702 72.100,63.396 71.000 C 63.090 69.900,62.635 67.740,62.384 66.200 C 62.133 64.660,61.664 61.984,61.342 60.252 C 60.172 53.967,59.686 41.474,60.180 30.400 C 60.372 26.107,60.331 23.451,60.063 22.800 C 59.733 22.000,59.646 21.952,59.625 22.560 " stroke="none" fill="#bc583d" fill-rule="evenodd"></path><path id="path1" d="M0.000 235.000 L 0.000 470.000 200.000 470.000 L 400.000 470.000 400.000 235.000 L 400.000 0.000 200.000 0.000 L 0.000 0.000 0.000 235.000 M60.180 30.400 C 59.686 41.474,60.172 53.967,61.342 60.252 C 61.664 61.984,62.133 64.660,62.384 66.200 C 62.635 67.740,63.090 69.900,63.396 71.000 C 63.702 72.100,64.342 74.440,64.818 76.200 C 68.410 89.494,75.034 103.732,82.591 114.401 C 87.607 121.483,97.774 132.463,101.677 135.016 C 102.490 135.547,103.795 136.622,104.578 137.404 C 106.226 139.052,112.374 143.554,114.410 144.602 C 115.174 144.996,116.340 145.717,117.000 146.205 C 118.247 147.125,126.652 152.000,126.992 152.000 C 127.099 152.000,128.674 152.705,130.493 153.568 C 136.487 156.409,144.029 159.214,150.400 160.970 C 152.490 161.547,155.100 162.279,156.200 162.597 C 157.974 163.111,164.099 164.446,167.400 165.038 C 168.060 165.156,169.004 165.334,169.497 165.433 C 170.535 165.642,171.768 167.876,173.832 173.285 C 176.455 180.158,175.566 184.149,170.007 190.447 C 168.472 192.186,166.920 194.193,166.559 194.905 C 166.199 195.617,165.644 196.497,165.326 196.860 C 164.553 197.743,164.542 199.613,165.300 201.038 C 165.640 201.677,166.585 204.090,167.400 206.400 C 168.216 208.710,169.296 211.590,169.801 212.800 C 171.840 217.686,175.600 227.642,175.600 228.155 C 175.600 228.456,175.870 228.926,176.200 229.200 C 176.530 229.474,176.800 229.961,176.800 230.282 C 176.800 230.604,177.359 232.247,178.043 233.933 C 178.727 235.620,179.700 238.080,180.207 239.400 C 180.713 240.720,181.880 243.690,182.800 246.000 C 185.123 251.833,186.376 255.126,186.985 257.000 C 187.270 257.880,188.041 259.860,188.697 261.400 C 189.353 262.940,191.109 267.350,192.600 271.200 C 194.091 275.050,196.006 279.856,196.856 281.880 C 197.705 283.903,198.400 285.756,198.400 285.996 C 198.400 286.730,199.992 289.600,200.399 289.600 C 200.981 289.600,201.897 288.015,202.838 285.379 C 203.305 284.070,204.214 281.560,204.858 279.800 C 205.501 278.040,206.549 275.070,207.187 273.200 C 207.824 271.330,209.187 267.460,210.217 264.600 C 211.246 261.740,212.790 257.330,213.647 254.800 C 214.505 252.270,215.319 249.930,215.456 249.600 C 216.160 247.906,222.505 229.258,222.669 228.400 C 222.774 227.850,223.022 227.040,223.220 226.600 C 223.418 226.160,224.221 223.820,225.005 221.400 C 225.789 218.980,226.594 216.640,226.794 216.200 C 226.993 215.760,227.637 213.600,228.225 211.400 C 228.813 209.200,229.522 206.770,229.800 206.000 C 232.384 198.848,232.408 198.950,226.359 191.530 C 222.769 187.127,222.630 186.884,222.017 183.902 C 221.533 181.548,222.338 175.933,223.240 175.375 C 223.438 175.253,223.600 174.886,223.600 174.560 C 223.600 173.778,225.921 168.790,226.690 167.918 C 227.021 167.542,228.126 167.127,229.146 166.994 C 232.173 166.599,247.248 163.065,248.071 162.556 C 248.288 162.422,249.395 162.079,250.532 161.794 C 252.496 161.302,254.435 160.583,261.800 157.618 C 285.592 148.039,306.011 130.667,319.651 108.399 C 320.799 106.525,324.910 98.153,326.623 94.200 C 326.909 93.540,327.533 92.100,328.010 91.000 C 329.172 88.317,331.905 79.979,332.599 77.000 C 332.906 75.680,333.343 73.880,333.570 73.000 C 336.219 62.719,337.346 51.062,337.080 36.678 C 336.823 22.764,338.736 22.123,340.407 35.564 C 340.610 37.193,341.080 40.073,341.451 41.964 C 342.256 46.053,342.446 70.572,341.703 74.400 C 341.468 75.610,341.067 77.950,340.813 79.600 C 339.868 85.725,338.362 93.315,337.995 93.800 C 337.828 94.020,337.565 94.830,337.410 95.600 C 337.030 97.489,334.240 106.209,333.379 108.200 C 332.998 109.080,332.553 110.340,332.390 111.000 C 332.226 111.660,331.956 112.531,331.789 112.936 C 330.612 115.799,336.954 107.873,339.260 103.600 C 340.032 102.170,341.387 99.740,342.271 98.200 C 343.695 95.719,344.582 93.933,347.432 87.800 C 348.510 85.481,349.130 83.744,351.728 75.757 C 354.998 65.706,355.644 63.980,356.047 64.229 C 356.534 64.530,356.492 71.090,355.992 72.803 C 355.767 73.571,355.406 75.460,355.188 77.000 C 354.245 83.693,350.529 96.696,347.988 102.200 C 347.784 102.640,347.322 103.900,346.961 105.000 C 345.132 110.562,339.141 120.794,330.799 132.600 C 329.711 134.140,328.816 135.640,328.811 135.934 C 328.779 137.508,337.243 128.894,341.079 123.448 C 346.357 115.952,347.960 113.556,350.343 109.600 C 351.866 107.070,353.245 104.550,353.407 104.000 C 353.871 102.423,358.453 94.755,359.074 94.516 C 360.112 94.118,360.049 94.695,358.597 98.855 C 357.801 101.135,356.989 103.633,356.794 104.407 C 355.445 109.738,343.355 132.868,341.231 134.181 C 341.036 134.301,340.316 135.345,339.632 136.500 C 338.948 137.655,336.519 141.030,334.235 144.000 C 331.951 146.970,330.136 149.457,330.202 149.528 C 330.997 150.373,343.973 138.415,348.749 132.436 C 349.556 131.426,351.112 129.638,352.208 128.461 C 353.304 127.285,354.344 126.070,354.520 125.761 C 355.095 124.753,355.555 125.162,355.208 126.373 C 354.796 127.810,351.292 134.296,350.746 134.633 C 350.529 134.768,350.188 135.306,349.989 135.829 C 347.944 141.209,330.779 159.357,318.300 169.334 C 316.265 170.961,315.944 171.600,317.160 171.600 C 318.912 171.600,326.992 167.111,333.672 162.427 C 342.879 155.971,344.800 154.873,344.800 156.069 C 344.800 156.690,337.665 163.547,334.527 165.942 C 333.167 166.980,331.367 168.410,330.527 169.121 C 327.628 171.573,317.901 178.400,317.307 178.400 C 317.142 178.400,316.105 179.000,315.003 179.734 C 313.902 180.467,311.971 181.671,310.714 182.410 C 304.766 185.903,310.100 185.753,320.800 182.126 C 321.790 181.790,323.140 181.383,323.800 181.221 C 324.460 181.059,325.576 180.628,326.280 180.263 C 326.984 179.899,328.064 179.594,328.680 179.587 C 329.296 179.580,330.149 179.310,330.576 178.987 C 331.536 178.261,333.330 178.199,333.110 178.900 C 333.023 179.175,332.380 179.691,331.681 180.047 C 330.982 180.403,330.129 180.927,329.786 181.212 C 328.263 182.475,313.836 188.651,310.600 189.424 C 309.940 189.581,309.220 189.843,309.000 190.005 C 308.636 190.274,304.228 191.662,298.300 193.376 C 291.929 195.218,302.470 196.585,311.056 195.031 C 312.785 194.718,315.460 194.342,317.000 194.196 C 318.540 194.050,321.027 193.676,322.526 193.365 C 326.858 192.467,329.807 192.914,326.923 194.031 C 326.305 194.271,325.134 194.811,324.321 195.233 C 323.507 195.655,322.298 196.000,321.634 196.000 C 320.970 196.000,319.836 196.256,319.114 196.568 C 317.738 197.163,313.602 198.226,310.200 198.859 C 309.100 199.063,306.850 199.487,305.200 199.801 C 301.977 200.413,293.722 201.446,287.668 201.993 C 276.011 203.048,293.716 206.322,312.682 206.619 C 319.262 206.722,322.897 207.263,322.135 208.025 C 320.840 209.320,302.324 211.607,289.611 212.041 C 275.696 212.517,275.039 212.962,284.000 215.844 C 286.530 216.658,288.787 217.467,289.016 217.641 C 289.245 217.816,290.325 218.147,291.416 218.376 C 292.507 218.605,294.390 219.052,295.600 219.369 C 300.111 220.551,305.077 221.551,307.510 221.767 C 311.350 222.108,313.421 223.425,311.626 224.386 C 310.045 225.232,284.285 224.785,278.729 223.815 C 277.015 223.516,276.031 224.106,276.633 225.072 C 277.639 226.685,288.983 233.189,292.800 234.340 C 293.570 234.572,295.730 235.326,297.600 236.014 C 299.470 236.703,301.810 237.496,302.800 237.777 C 307.960 239.243,302.062 240.097,294.279 239.011 C 285.719 237.817,281.951 237.217,281.579 236.987 C 281.374 236.860,280.080 236.577,278.703 236.358 C 277.326 236.139,275.056 235.609,273.658 235.180 C 264.964 232.512,268.492 236.465,280.801 243.183 C 283.237 244.512,285.315 245.600,285.419 245.600 C 286.189 245.600,294.101 249.841,294.410 250.419 C 294.981 251.486,294.284 251.735,292.085 251.252 C 291.048 251.024,289.210 250.661,288.000 250.446 C 284.845 249.885,279.204 248.573,277.800 248.074 C 276.716 247.689,274.999 247.205,270.200 245.933 C 269.320 245.700,267.868 245.169,266.974 244.754 C 258.010 240.597,266.426 250.178,278.595 257.985 C 284.233 261.602,282.408 262.594,275.000 259.939 C 274.340 259.703,272.810 259.164,271.600 258.743 C 269.123 257.880,264.738 255.732,261.916 253.999 C 256.527 250.690,258.003 254.670,265.322 263.185 C 268.443 266.817,269.129 268.400,267.582 268.400 C 265.995 268.400,259.138 264.702,256.655 262.507 C 254.209 260.346,252.870 259.535,252.300 259.871 C 251.318 260.449,252.634 265.660,254.614 269.033 C 256.937 272.990,253.948 272.312,247.327 267.380 C 243.217 264.319,242.587 264.967,243.227 271.600 C 243.496 274.401,241.972 274.374,239.245 271.530 C 236.416 268.580,236.630 268.263,232.447 281.600 C 229.630 290.586,228.832 293.849,226.632 305.400 C 224.858 314.717,223.022 338.676,222.389 360.786 C 222.184 367.928,221.835 376.388,221.614 379.586 C 221.392 382.784,221.020 390.980,220.788 397.800 C 220.254 413.511,218.659 434.392,218.041 433.774 C 217.908 433.642,217.710 403.008,217.600 365.700 C 217.455 316.412,217.278 297.826,216.955 297.718 C 216.540 297.580,213.534 303.795,211.596 308.800 C 207.953 318.207,201.192 330.000,199.441 330.000 C 198.260 330.000,193.200 323.399,193.200 321.858 C 193.200 321.708,192.730 320.840,192.157 319.931 C 191.059 318.192,182.280 300.789,181.605 299.013 C 181.134 297.774,180.062 297.267,179.550 298.042 C 179.327 298.378,179.206 322.191,179.247 358.000 C 179.309 412.988,179.147 426.539,178.406 428.580 C 177.915 429.934,177.248 423.504,176.998 415.000 C 176.869 410.600,176.590 403.670,176.378 399.600 C 176.166 395.530,175.817 386.890,175.602 380.400 C 175.388 373.910,175.029 365.270,174.805 361.200 C 174.580 357.130,174.226 349.030,174.018 343.200 C 173.810 337.370,173.448 330.800,173.215 328.600 C 172.981 326.400,172.625 322.260,172.422 319.400 C 171.332 304.042,166.245 281.492,161.266 269.944 C 160.130 267.309,159.818 267.276,157.667 269.568 C 154.653 272.778,152.842 272.231,153.833 268.412 C 155.062 263.673,153.698 261.974,150.800 264.636 C 149.779 265.574,143.163 270.005,142.800 269.994 C 141.680 269.960,141.527 269.200,142.306 267.542 C 144.889 262.040,145.645 259.218,144.807 258.209 C 144.338 257.643,142.400 258.124,142.400 258.805 C 142.400 259.737,135.903 263.875,131.486 265.755 C 128.134 267.183,127.387 266.039,129.944 263.396 C 133.017 260.220,138.400 252.651,138.400 251.505 C 138.400 250.454,137.364 250.644,134.852 252.156 C 126.722 257.051,116.795 260.222,116.112 258.143 C 116.030 257.892,117.906 256.383,120.281 254.790 C 125.933 251.000,128.842 248.667,131.927 245.448 C 135.803 241.406,135.194 241.200,127.035 243.786 C 121.094 245.670,117.750 246.581,113.800 247.393 C 112.480 247.665,110.422 248.182,109.227 248.543 C 102.443 250.594,100.321 248.756,106.302 246.010 C 118.515 240.403,128.800 234.167,128.800 232.369 C 128.800 232.065,128.413 231.986,127.700 232.143 C 126.092 232.499,122.204 233.405,119.000 234.171 C 113.715 235.434,110.590 236.008,104.400 236.854 C 90.645 238.733,88.340 237.560,99.200 234.208 C 102.206 233.280,104.049 232.530,107.513 230.828 C 109.335 229.933,110.943 229.200,111.086 229.200 C 112.301 229.200,120.538 223.664,120.719 222.726 C 120.925 221.657,119.730 221.580,113.871 222.285 C 107.139 223.095,88.884 223.196,86.117 222.439 C 82.873 221.551,83.768 220.000,87.524 220.000 C 89.989 220.000,99.318 218.111,104.400 216.582 C 106.270 216.020,108.700 215.313,109.800 215.011 C 113.293 214.052,118.539 212.022,118.869 211.502 C 119.503 210.504,119.133 210.400,114.900 210.381 C 106.058 210.342,94.580 209.536,86.600 208.395 C 79.123 207.326,77.663 207.056,76.300 206.496 C 73.134 205.193,74.278 204.887,83.400 204.597 C 92.196 204.317,103.585 203.657,103.995 203.403 C 104.161 203.300,106.163 202.936,108.443 202.593 C 115.475 201.537,114.802 200.389,106.715 199.642 C 99.336 198.960,87.133 197.197,84.717 196.465 C 83.993 196.245,82.410 195.873,81.200 195.638 C 76.687 194.761,69.080 192.118,69.431 191.549 C 69.718 191.086,74.183 191.120,76.200 191.601 C 81.784 192.934,99.697 194.025,100.640 193.090 C 101.206 192.530,99.723 191.524,97.543 190.990 C 96.364 190.701,94.860 190.276,94.200 190.045 C 93.540 189.815,91.201 189.065,89.002 188.380 C 86.803 187.695,84.823 186.990,84.602 186.814 C 84.381 186.637,83.570 186.358,82.800 186.193 C 82.030 186.028,80.773 185.557,80.006 185.147 C 79.239 184.736,78.330 184.400,77.986 184.400 C 77.642 184.400,77.188 184.228,76.979 184.019 C 76.769 183.809,75.518 183.221,74.199 182.712 C 70.840 181.415,64.416 177.892,64.407 177.343 C 64.394 176.519,65.424 176.468,67.227 177.203 C 69.563 178.154,72.661 179.177,74.400 179.571 C 75.170 179.745,76.250 180.079,76.800 180.312 C 78.871 181.189,84.684 182.750,86.852 183.010 C 90.816 183.486,90.203 182.624,83.999 179.000 C 78.149 175.583,71.815 171.266,66.194 166.862 C 53.968 157.286,47.438 148.718,59.000 157.423 C 66.985 163.436,79.919 170.771,80.350 169.532 C 80.516 169.055,78.076 166.630,75.000 164.216 C 63.889 155.496,44.179 133.047,43.986 128.893 C 43.979 128.732,43.625 127.880,43.200 127.000 C 42.355 125.252,42.208 124.400,42.749 124.400 C 43.096 124.400,44.360 125.806,49.221 131.600 C 54.396 137.768,64.832 147.318,65.398 146.403 C 65.641 146.010,63.915 143.378,60.804 139.400 C 58.830 136.876,54.347 130.379,52.938 128.000 C 52.482 127.230,51.391 125.430,50.513 124.000 C 47.505 119.099,41.200 106.134,41.200 104.850 C 41.200 104.493,40.501 102.490,39.647 100.400 C 38.082 96.569,37.246 93.195,37.865 93.206 C 38.999 93.227,40.002 94.794,44.174 103.063 C 46.821 108.308,53.459 118.411,57.874 123.915 C 65.407 133.303,72.220 138.880,66.700 131.139 C 63.520 126.679,63.542 126.711,61.360 123.553 C 59.074 120.244,56.234 115.609,54.647 112.600 C 54.067 111.500,53.425 110.330,53.221 110.000 C 52.602 109.002,50.934 105.103,50.396 103.400 C 50.119 102.520,49.552 101.124,49.136 100.297 C 46.274 94.603,41.433 76.215,41.002 69.400 C 40.877 67.420,40.681 64.900,40.566 63.800 L 40.358 61.800 41.313 62.800 C 41.949 63.466,42.638 65.204,43.376 68.000 C 43.986 70.310,44.662 72.650,44.880 73.200 C 45.097 73.750,45.912 76.090,46.692 78.400 C 48.739 84.470,53.395 94.328,56.608 99.400 C 57.584 100.940,59.008 103.370,59.772 104.800 C 60.971 107.043,64.359 111.200,64.989 111.200 C 65.346 111.200,65.222 109.383,64.837 108.980 C 64.638 108.771,64.290 107.970,64.065 107.200 C 63.840 106.430,63.091 104.270,62.402 102.400 C 55.075 82.520,52.730 56.064,56.378 34.435 C 57.241 29.322,57.764 27.221,58.640 25.360 C 59.168 24.238,59.611 22.978,59.625 22.560 C 59.646 21.952,59.733 22.000,60.063 22.800 C 60.331 23.451,60.372 26.107,60.180 30.400 " stroke="none" fill="#fbfbfb" fill-rule="evenodd"></path></g></svg>